<svg width="84" height="20" viewBox="0 0 84 20" fill="none" xmlns="http://www.w3.org/2000/svg">
<path d="M0 20V0H18.3199V3.0009H3.02336V8.4726H15.319V11.5274H3.02336V16.9991H18.3154V20H0Z" fill="#255820"/>
<path d="M20.5659 20V-9.53674e-07H36.9136C37.5785 -9.53674e-07 38.1895 0.161725 38.7465 0.485175C39.3036 0.808625 39.7393 1.24438 40.0628 1.79245C40.3862 2.34052 40.5479 2.94699 40.5479 3.61186V16.3881C40.5479 17.053 40.3862 17.6595 40.0628 18.2075C39.7393 18.7556 39.2991 19.1914 38.7465 19.5148C38.1895 19.8383 37.583 20 36.9136 20H20.5659ZM24.2317 17.0036H36.8328C37.0349 17.0036 37.2011 16.9362 37.3314 16.7969C37.4617 16.6577 37.5246 16.496 37.5246 16.3118V3.70171C37.5246 3.51752 37.4617 3.35579 37.3314 3.21653C37.2011 3.07727 37.0349 3.00988 36.8328 3.00988H24.2317C24.0475 3.00988 23.8903 3.07727 23.76 3.21653C23.6297 3.35579 23.5668 3.51752 23.5668 3.70171V16.3118C23.5668 16.496 23.6297 16.6577 23.76 16.7969C23.8903 16.9362 24.0475 17.0036 24.2317 17.0036Z" fill="#255820"/>
<path d="M43.019 20V-9.53674e-07H61.3389V3.0009H46.0469V8.4726H58.3425V11.5274H46.0469V16.9991H61.3389V20H43.019Z" fill="#255820"/>
<path d="M63.5308 20V-9.53674e-07H67.1112L80.4894 15.9434V-9.53674e-07H83.5128V20H79.9324L66.5272 4.02965V20H63.5308Z" fill="#255820"/>
</svg>
