<svg width="99" height="99" viewBox="0 0 99 99" fill="none" xmlns="http://www.w3.org/2000/svg">
<g clip-path="url(#clip0_7224_2692)">
<path d="M98.3889 39.1222C92.6403 12.0796 66.074 -5.1789 39.0511 0.573608C29.5954 2.58644 20.9258 7.29851 14.0894 14.1388C11.8182 16.411 9.76789 18.8952 7.96708 21.557C7.43454 22.27 6.95623 23.0225 6.53709 23.8075C-7.61587 47.5582 0.149474 78.2931 23.8814 92.4569C47.6143 106.621 78.3266 98.8495 92.4795 75.0998C93.5131 73.3651 94.4411 71.5702 95.2577 69.723C95.5565 69.1037 95.8208 68.4676 96.0496 67.8187C99.5723 58.7318 100.394 48.8185 98.4155 39.2751L98.3889 39.1222ZM81.0396 16.2325C81.3276 16.5067 81.6106 16.7858 81.8947 17.0698C86.2507 21.413 89.6866 26.5915 91.9973 32.2938C92.158 32.6902 91.9677 33.1419 91.5722 33.3026C91.4361 33.3579 91.2872 33.3736 91.1432 33.347C89.6768 33.0985 88.1906 32.993 86.7034 33.0314C85.5673 33.0561 84.5811 32.2514 84.3779 31.132C83.582 26.4535 82.2941 21.8726 80.5367 17.4653L80.2536 16.7858C80.1432 16.5382 80.2546 16.2483 80.5021 16.1378C80.6836 16.057 80.8966 16.0944 81.0406 16.2315H81.0396V16.2325ZM85.7941 45.5996C85.7901 45.3037 86.0258 45.0601 86.3217 45.0562C86.4953 45.0532 86.659 45.1351 86.7616 45.2751C87.1393 45.8018 87.4992 46.3333 87.8454 46.8639C88.304 47.569 88.732 48.2712 89.1274 48.9704C89.3779 49.4043 89.3178 49.9517 88.9785 50.3205C88.442 50.9211 87.8602 51.5296 87.233 52.1479L86.5446 52.8412C86.3759 53.0237 86.0909 53.0345 85.9085 52.8659C85.8059 52.7712 85.7537 52.6341 85.7655 52.4941C85.7971 51.7426 85.8148 50.9862 85.8286 50.2436C85.8424 48.6726 85.8335 47.1282 85.7931 45.5986H85.7941V45.5996ZM22.8203 12.1408C30.5846 6.57661 39.9003 3.5973 49.4496 3.62393C51.9792 3.62195 54.5059 3.82906 57.002 4.2403C57.4201 4.31525 57.6982 4.71466 57.6233 5.1338C57.5917 5.31329 57.497 5.47502 57.357 5.5914C54.9645 7.47307 52.7376 10.2551 50.7672 13.8607C50.2869 14.7384 49.2652 15.1694 48.3027 14.9001C42.1735 13.1062 35.8046 12.267 29.4199 12.411C27.3361 12.479 25.2601 12.6989 23.2078 13.0678C22.9248 13.1082 22.6634 12.911 22.623 12.6279C22.5964 12.4406 22.6743 12.2532 22.8252 12.1398H22.8203V12.1408ZM16.2709 80.7152C15.3084 78.8917 16.5539 74.6747 22.8873 68.2644C23.5007 67.6451 23.4968 66.6441 22.8775 66.0297C22.836 65.9893 22.7926 65.9508 22.7473 65.9143L21.9918 65.3108C21.3626 64.7999 20.4494 64.8482 19.8774 65.4232L19.6299 65.6707C16.481 68.9203 14.2324 71.9321 13.0085 74.6373C12.76 75.1797 12.12 75.4183 11.5776 75.1698C11.3951 75.086 11.2393 74.9528 11.1288 74.7862C6.18108 67.295 3.55384 58.5089 3.57652 49.5286C3.57455 46.3096 3.90887 43.0986 4.57554 39.9496C4.56469 39.7011 4.757 39.4901 5.00553 39.4792C5.25405 39.4684 5.46411 39.6607 5.47594 39.9092C6.55879 43.3402 8.11995 46.6016 10.1131 49.5966C13.2393 54.2969 17.0046 58.5395 21.2995 62.2003C22.838 63.5504 24.4485 64.8246 26.1526 66.0672C29.6803 68.651 33.4012 70.9607 37.2809 72.9765C39.0393 73.8769 40.7533 74.7773 42.5078 75.5515C43.4831 75.9953 44.5956 76.0258 45.5936 75.6373C46.421 75.3128 47.2534 74.9755 48.0897 74.6244C49.0019 74.2438 49.498 73.2517 49.2544 72.2931C49.2228 72.1718 49.2001 72.0771 49.1873 72.0189C47.7425 65.7112 46.9881 59.2644 46.9378 52.7929V50.8264V49.5394C46.9378 48.3649 47.0009 47.1943 47.064 46.0374C47.5137 37.7593 48.8944 29.9811 51.1124 23.4406C51.3185 22.8351 50.997 22.1773 50.3924 21.9682C49.7988 21.77 49.209 21.5767 48.6242 21.3923C48.0285 21.2049 47.3924 21.5264 47.1893 22.1172C44.7741 29.2208 43.28 37.6518 42.8796 46.573C42.8303 47.7031 42.2149 48.7327 41.2425 49.3097C36.2513 52.2436 31.4673 55.5178 26.9248 59.1095C26.0501 59.8048 24.8045 59.7782 23.9603 59.0464C19.9682 55.647 16.4681 51.7081 13.5608 47.3432C8.31127 39.277 7.06077 31.6784 10.048 25.9525L10.0707 25.9121C10.4533 25.2769 10.8488 24.6566 11.258 24.0393C14.69 19.4978 21.0727 16.8637 29.5382 16.5668C30.0718 16.5491 30.6122 16.5402 31.1576 16.5402C36.7257 16.6004 42.2583 17.4406 47.5936 19.0343L47.9674 19.1467L48.2554 19.2276C49.566 19.6211 50.8777 20.053 52.1913 20.5244L52.286 20.556L53.3116 20.9386L53.6351 21.0599L53.9457 21.1773C56.7682 22.27 59.5276 23.5176 62.213 24.913C67.3216 27.5531 72.1283 30.7405 76.5485 34.42C68.5099 36.2612 59.1726 39.8214 49.7751 44.6114C49.3392 44.8303 49.0561 45.2672 49.0325 45.7544C48.997 46.3353 48.9556 47.5059 48.925 48.4556C48.9112 48.8757 49.2396 49.2268 49.6597 49.2416C49.7919 49.2456 49.924 49.216 50.0414 49.1538C59.3393 44.2652 68.6234 40.6015 76.58 38.6834C78.0692 38.3214 79.0416 36.8885 78.8295 35.3707C78.6826 34.3086 78.5179 33.2583 78.3345 32.2198C78.1037 30.9328 77.3996 29.7799 76.3601 28.988C72.505 26.06 68.4054 23.4673 64.1075 21.2414C61.1874 19.7217 58.1844 18.3696 55.1114 17.1901C54.5286 16.9692 54.2337 16.3173 54.4546 15.7335C54.4743 15.6802 54.499 15.628 54.5276 15.5786C57.6361 10.0106 61.3334 6.89515 64.936 6.89515H65.0484C69.2989 6.97208 73.5366 11.3962 76.6717 19.0491C78.3739 23.2937 79.6136 27.7099 80.369 32.2198C80.729 34.2908 81.0169 36.4289 81.2329 38.6212L81.1747 38.6577L81.2517 38.7346C81.6195 42.5325 81.7694 46.3481 81.7014 50.1637C81.656 52.6391 81.5258 55.0789 81.3148 57.4695C74.9311 62.5247 68.0869 66.9686 60.8708 70.7398C58.3343 72.0899 55.7929 73.3375 53.282 74.4943L53.1647 74.5485L52.5848 74.8099C50.5039 75.7556 48.4467 76.6254 46.4131 77.4203L46.0709 77.5505L45.6212 77.7172L44.6044 78.1047L44.3253 78.2083L43.0975 78.658L42.9486 78.7162C38.9525 80.1748 34.8519 81.3277 30.6822 82.1639C21.5461 83.9154 17.2729 82.5643 16.2699 80.7192V80.7152H16.2709ZM28.843 62.8936C33.2651 59.3344 37.9357 56.0957 42.8184 53.2022C42.8963 59.5247 43.6094 65.8246 44.9457 72.0041C43.0206 71.1787 41.1024 70.2783 39.1922 69.3029C35.5866 67.4281 32.127 65.2861 28.842 62.8926L28.843 62.8936ZM55.3826 95.0615C53.4191 95.3149 51.4428 95.4412 49.4634 95.4392C40.6823 95.4639 32.0817 92.9471 24.697 88.1916C24.411 88.0072 24.3282 87.6255 24.5126 87.3395C24.6211 87.1719 24.8035 87.0664 25.0027 87.0575H25.3489C27.3972 86.9105 29.4347 86.6354 31.4485 86.234C36.705 85.163 41.8598 83.6403 46.8549 81.6827C47.3471 81.5002 47.8944 81.7419 48.0916 82.2271C50.2149 87.3948 52.8234 91.2971 55.7386 93.7824C56.0444 94.0477 56.0769 94.5112 55.8116 94.8179C55.6992 94.9481 55.5444 95.0339 55.3747 95.0615H55.3836H55.3826ZM74.7782 82.804C71.4991 89.2498 67.4685 92.8691 63.5602 92.7972C59.3097 92.7202 55.072 88.2961 51.9329 80.6432C51.7357 80.156 51.9635 79.6008 52.4457 79.3917L52.5443 79.3513C52.7495 79.2606 52.9802 79.2448 53.1962 79.3059C58.7535 80.9144 64.504 81.7576 70.289 81.8129C70.8788 81.8129 71.4626 81.8129 72.0386 81.7813C72.7181 81.7586 73.3877 81.7231 74.0445 81.6689C74.4765 81.6551 74.8374 81.9943 74.8512 82.4273C74.8552 82.5574 74.8266 82.6866 74.7684 82.804H74.7782ZM76.2003 77.2576C74.7703 77.4647 73.3305 77.5929 71.8867 77.6402C68.0129 77.7487 64.1391 77.4391 60.3314 76.7172C60.0503 76.6649 59.8659 76.3937 59.9182 76.1126C59.9477 75.9529 60.0513 75.8168 60.1963 75.7448C61.0641 75.2951 61.9369 74.8444 62.8048 74.3947C68.6391 71.3187 74.2536 67.8394 79.6057 63.9833C79.8365 63.8157 80.1599 63.867 80.3286 64.0977C80.4104 64.2102 80.443 64.3502 80.4203 64.4873C79.7773 68.4351 78.8177 72.3256 77.5504 76.1185C77.3502 76.7211 76.8285 77.161 76.2013 77.2576H76.2003ZM82.9469 80.8996C82.6008 81.2685 82.2497 81.6334 81.8897 81.9933C81.2625 82.6206 80.6225 83.2212 79.9686 83.7941C79.7605 83.9825 79.439 83.9667 79.2506 83.7576C79.1126 83.6058 79.08 83.3849 79.1678 83.1995L79.366 82.7497C79.6422 82.1492 79.9075 81.5288 80.1619 80.8858C80.225 80.7379 80.3532 80.6265 80.5081 80.5841C81.1599 80.4223 81.7941 80.2379 82.4104 80.0397C82.6609 79.9134 82.9667 80.015 83.0929 80.2665C83.2024 80.4854 83.1412 80.7517 82.9459 80.8996H82.9469ZM92.1679 66.3374C91.948 66.9005 91.7182 67.4538 91.4707 68.007C91.4352 68.084 91.3987 68.1599 91.3582 68.2368C89.8464 71.1491 87.3099 73.4449 83.9183 75.0426C83.4242 75.2655 82.8444 75.0456 82.6215 74.5515C82.5278 74.3434 82.5091 74.1096 82.5692 73.8897C83.7398 69.6283 84.585 65.2841 85.0968 60.8946C85.2024 60.0395 85.6225 59.2545 86.2754 58.6934C87.6698 57.4823 88.9746 56.2762 90.1708 55.0918C90.5998 54.6588 91.2971 54.6559 91.729 55.0849C91.8573 55.2121 91.9519 55.3689 92.0062 55.5415C93.1896 59.4665 93.2567 63.1352 92.1728 66.3354H92.1679V66.3374ZM93.0683 44.8294C92.8148 45.28 92.2448 45.4398 91.7941 45.1864C91.662 45.1114 91.5496 45.0059 91.4667 44.8787L91.2912 44.6045C89.874 42.4358 88.303 40.3717 86.5909 38.4289C86.3148 38.1084 86.3513 37.6252 86.6708 37.35C86.8089 37.2307 86.9844 37.1656 87.1669 37.1646C91.2784 37.1646 93.4332 38.1824 94.09 39.4151C94.6748 40.4595 94.5082 42.2731 93.091 44.8215L93.0683 44.8303V44.8294ZM95.2853 50.8974C95.2813 51.0562 95.1482 51.1815 94.9894 51.1775C94.876 51.1746 94.7754 51.1055 94.732 51.001C94.6827 50.8797 94.6285 50.7535 94.5742 50.6322C94.4736 50.4053 94.5032 50.143 94.6512 49.9438L94.8178 49.7229C95.02 49.4615 95.308 49.502 95.308 49.7899C95.3307 50.1726 95.3218 50.5059 95.308 50.8974H95.2853Z" fill="#F1F9F4"/>
</g>
<defs>
<clipPath id="clip0_7224_2692">
<rect width="98.9366" height="99" fill="white"/>
</clipPath>
</defs>
</svg>
