<svg width="48" height="48" viewBox="0 0 48 48" fill="none" xmlns="http://www.w3.org/2000/svg">
<path d="M0 24C0 10.7452 10.7452 0 24 0V0C37.2548 0 48 10.7452 48 24V24C48 37.2548 37.2548 48 24 48V48C10.7452 48 0 37.2548 0 24V24Z" fill="#075833"/>
<path d="M31.238 28.0179C31.238 31.2099 28.942 33.5059 25.47 33.9259V36.8099H22.726V33.8699C19.142 33.3379 16.874 30.9299 16.762 27.3739H19.982C20.178 29.7819 21.858 31.2659 24.35 31.2659C26.618 31.2659 28.018 30.1739 28.018 28.3819C28.018 26.6739 26.954 25.9459 23.23 25.2459C19.058 24.4619 17.238 22.8099 17.238 19.7859C17.238 16.7059 19.422 14.5219 22.726 14.1019V11.1899H25.47V14.1859C28.718 14.7179 30.818 16.9019 30.93 20.0939H27.71C27.486 18.0219 26.002 16.7619 23.846 16.7619C21.718 16.7619 20.43 17.7979 20.43 19.5339C20.43 21.1859 21.494 21.9139 25.162 22.5859C29.334 23.3139 31.238 25.0499 31.238 28.0179Z" fill="#35A35A"/>
</svg>
