<svg width="48" height="48" viewBox="0 0 48 48" fill="none" xmlns="http://www.w3.org/2000/svg">
<g clip-path="url(#clip0_4331_235)">
<path d="M48 24C48 10.7452 37.2548 0 24 0C10.7452 0 0 10.7452 0 24C0 37.2548 10.7452 48 24 48C37.2548 48 48 37.2548 48 24Z" fill="#255820"/>
<mask id="mask0_4331_235" style="mask-type:luminance" maskUnits="userSpaceOnUse" x="10" y="10" width="28" height="29">
<path d="M38 10H10V38.0174H38V10Z" fill="white"/>
</mask>
<g mask="url(#mask0_4331_235)">
<path d="M37.6976 21.1031C36.088 13.5313 28.6494 8.69896 21.0832 10.3096C18.4356 10.8732 16.0081 12.1926 14.0939 14.1079C13.458 14.7441 12.8839 15.4397 12.3797 16.1849C12.2305 16.3846 12.0966 16.5953 11.9793 16.8151C8.01646 23.4653 10.1907 32.0709 16.8356 36.0367C23.4808 40.0027 32.0802 37.8267 36.043 31.1769C36.3324 30.6911 36.5922 30.1885 36.8208 29.6713C36.9046 29.4979 36.9786 29.3199 37.0426 29.1381C38.029 26.5939 38.259 23.8181 37.705 21.1459L37.6976 21.1031ZM32.8398 14.6941C32.9204 14.7709 32.9996 14.849 33.0792 14.9285C34.299 16.1446 35.261 17.5946 35.908 19.1912C35.953 19.3022 35.8996 19.4287 35.789 19.4737C35.7508 19.4892 35.7092 19.4936 35.6688 19.4861C35.2582 19.4165 34.842 19.387 34.4256 19.3978C34.1076 19.4047 33.8314 19.1793 33.7746 18.8659C33.5516 17.556 33.191 16.2733 32.699 15.0393L32.6198 14.849C32.5888 14.7797 32.62 14.6985 32.6894 14.6676C32.7402 14.6449 32.7996 14.6557 32.8398 14.6941ZM34.171 22.9169C34.17 22.8339 34.236 22.7657 34.3188 22.7647C34.3674 22.7639 34.4132 22.7867 34.442 22.8259C34.5478 22.9735 34.6484 23.1223 34.7454 23.2709C34.8738 23.4683 34.9936 23.6649 35.1044 23.8607C35.1746 23.9821 35.1576 24.1353 35.0626 24.2387C34.9124 24.4069 34.7496 24.5771 34.574 24.7503L34.3812 24.9445C34.334 24.9955 34.2542 24.9985 34.203 24.9513C34.1744 24.9249 34.1598 24.8865 34.163 24.8473C34.1718 24.6369 34.1768 24.4251 34.1808 24.2171C34.1846 23.7773 34.1822 23.3453 34.171 22.9169ZM16.5385 13.5484C18.7125 11.9905 21.3208 11.1563 23.9946 11.1637C24.703 11.1632 25.4104 11.2212 26.1094 11.3363C26.2264 11.3573 26.3042 11.4691 26.2832 11.5865C26.2744 11.6367 26.248 11.682 26.2088 11.7146C25.5388 12.2415 24.9154 13.0205 24.3636 14.03C24.2292 14.2758 23.943 14.3964 23.6736 14.321C21.9574 13.8188 20.174 13.5838 18.3864 13.6241C17.8029 13.6431 17.2217 13.7047 16.647 13.808C16.5678 13.8193 16.4946 13.7641 16.4833 13.6848C16.4758 13.6324 16.4963 13.5802 16.5385 13.5484ZM14.7047 32.7491C14.4352 32.2385 14.784 31.0577 16.5573 29.2629C16.729 29.0895 16.7279 28.8093 16.5545 28.6371C16.5429 28.6259 16.5308 28.6151 16.5181 28.6049L16.3066 28.4359C16.1304 28.2929 15.8747 28.3063 15.7145 28.4673L15.6452 28.5367C14.7635 29.4465 14.1339 30.2899 13.7913 31.0473C13.7217 31.1991 13.5425 31.2659 13.3906 31.1965C13.3395 31.1729 13.2959 31.1357 13.2649 31.0889C11.8796 28.9915 11.144 26.5313 11.1503 24.0169C11.1498 23.1157 11.2434 22.2165 11.43 21.3349C11.427 21.2653 11.4808 21.2061 11.5504 21.2031C11.62 21.2001 11.6788 21.2539 11.6821 21.3235C11.9853 22.2841 12.4225 23.1973 12.9805 24.0359C13.8559 25.3521 14.9101 26.5399 16.1127 27.5649C16.5435 27.9429 16.9944 28.2997 17.4716 28.6477C18.4593 29.3711 19.5012 30.0179 20.5874 30.5823C21.0798 30.8343 21.5598 31.0865 22.051 31.3033C22.324 31.4275 22.6356 31.4361 22.915 31.3273C23.1466 31.2365 23.3798 31.1421 23.6138 31.0437C23.8694 30.9371 24.0082 30.6593 23.94 30.3909C23.9312 30.3569 23.9248 30.3305 23.9212 30.3141C23.5166 28.5481 23.3054 26.7429 23.2914 24.9309V24.8617C23.2914 24.7569 23.2914 24.6511 23.2914 24.5465V24.4207V24.3803C23.2914 24.2605 23.2914 24.1409 23.2914 24.0199C23.2914 23.6911 23.309 23.3633 23.3268 23.0395C23.4526 20.7215 23.8392 18.5437 24.4602 16.7124C24.518 16.5428 24.428 16.3586 24.2586 16.3001C24.0924 16.2446 23.9274 16.1905 23.7636 16.1388C23.5968 16.0864 23.4186 16.1764 23.3618 16.3418C22.6856 18.3308 22.2672 20.6915 22.155 23.1893C22.1412 23.5057 21.969 23.7941 21.6966 23.9557C20.2992 24.7771 18.9597 25.6939 17.6878 26.6995C17.4428 26.8943 17.0941 26.8867 16.8577 26.6819C15.7399 25.7301 14.7599 24.6271 13.9459 23.4051C12.476 21.1465 12.1259 19.0189 12.9623 17.4157L12.9686 17.4044C13.0758 17.2265 13.1865 17.0528 13.3011 16.88C14.2621 15.6084 16.0492 14.8708 18.4195 14.7877C18.5689 14.7827 18.7202 14.7803 18.8729 14.7803C20.432 14.7971 21.9812 15.0324 23.475 15.4786L23.5796 15.5101L23.6602 15.5327C24.0272 15.6429 24.3946 15.7638 24.7624 15.8958L24.7888 15.9047L25.076 16.0118L25.1666 16.0458L25.2536 16.0786C26.0438 16.3846 26.8164 16.7339 27.5684 17.1246C28.9988 17.8638 30.3446 18.7563 31.5822 19.7866C29.3316 20.3021 26.717 21.2989 24.0858 22.6401C23.9638 22.7015 23.8846 22.8237 23.8778 22.9601C23.868 23.1227 23.8564 23.4505 23.8478 23.7165C23.844 23.8341 23.9358 23.9325 24.0534 23.9365C24.0906 23.9377 24.1276 23.9293 24.1604 23.9119C26.7638 22.5431 29.3632 21.5173 31.5912 20.9803C32.008 20.8789 32.2804 20.4777 32.221 20.0527C32.1798 19.7554 32.1338 19.4613 32.0824 19.1705C32.0178 18.8102 31.8206 18.4874 31.5296 18.2656C30.4502 17.4458 29.3022 16.7198 28.0988 16.0966C27.2812 15.6711 26.4404 15.2925 25.58 14.9622C25.4168 14.9004 25.3342 14.7178 25.396 14.5544C25.4016 14.5395 25.4084 14.5248 25.4164 14.511C26.2868 12.952 27.322 12.0797 28.3308 12.0797H28.3622C29.5524 12.1012 30.739 13.3399 31.6168 15.4827C32.0934 16.6712 32.4406 17.9077 32.652 19.1705C32.7528 19.7504 32.8334 20.3491 32.894 20.9629L32.8776 20.9731L32.8992 20.9947C33.0022 22.0581 33.0442 23.1263 33.025 24.1947C33.0124 24.8879 32.976 25.5711 32.9168 26.2403C31.1294 27.6559 29.213 28.9001 27.1926 29.9561C26.4824 30.3341 25.7708 30.6833 25.0678 31.0073L25.0348 31.0225L24.8726 31.0957C24.2898 31.3605 23.7138 31.6039 23.1444 31.8265L23.0486 31.8629L22.9228 31.9097L22.638 32.0181L22.5598 32.0471L22.2162 32.1731L22.1744 32.1893C21.0556 32.5977 19.9073 32.9205 18.7399 33.1547C16.1817 33.6451 14.9855 33.2657 14.7047 32.7491ZM18.2249 27.7591C19.463 26.7625 20.7708 25.8557 22.138 25.0455C22.1598 26.8159 22.3594 28.5797 22.7336 30.3101C22.1946 30.0789 21.6574 29.8267 21.1226 29.5537C20.113 29.0287 19.1447 28.4291 18.2249 27.7591ZM25.656 36.7661C25.1062 36.8369 24.5528 36.8723 23.9986 36.8717C21.5398 36.8787 19.1317 36.1741 17.064 34.8425C16.9839 34.7909 16.9607 34.6839 17.0124 34.6039C17.0427 34.5569 17.0938 34.5275 17.1496 34.5249H17.2465C17.82 34.4837 18.3905 34.4067 18.9544 34.2943C20.4262 33.9945 21.8696 33.5681 23.2682 33.0199C23.406 32.9689 23.5592 33.0365 23.6144 33.1725C24.209 34.6193 24.9394 35.7121 25.7556 36.4079C25.8412 36.4821 25.8504 36.6119 25.776 36.6979C25.7446 36.7343 25.7012 36.7583 25.6536 36.7661H25.656ZM31.0866 33.3339C30.1684 35.1387 29.04 36.1521 27.9456 36.1321C26.7554 36.1105 25.569 34.8717 24.69 32.7289C24.6348 32.5925 24.6986 32.4371 24.8336 32.3785L24.8612 32.3673C24.9186 32.3419 24.9832 32.3373 25.0438 32.3545C26.5998 32.8049 28.2098 33.0409 29.8296 33.0565C29.9948 33.0565 30.1582 33.0565 30.3196 33.0477C30.5098 33.0413 30.6972 33.0313 30.8812 33.0161C31.0022 33.0123 31.1032 33.1073 31.107 33.2285C31.1082 33.2649 31.1002 33.3011 31.0838 33.3339H31.0866ZM31.4848 31.7809C31.0844 31.8389 30.6812 31.8749 30.277 31.8881C29.1924 31.9185 28.1078 31.8317 27.0416 31.6297C26.9628 31.6151 26.9112 31.5391 26.9258 31.4603C26.9342 31.4157 26.9632 31.3775 27.0038 31.3573C27.2468 31.2315 27.491 31.1053 27.734 30.9793C29.3678 30.1181 30.9398 29.1439 32.4384 28.0643C32.503 28.0173 32.5934 28.0317 32.6408 28.0963C32.6636 28.1277 32.6728 28.1669 32.6664 28.2053C32.4864 29.3107 32.2176 30.4001 31.8628 31.4621C31.8068 31.6307 31.6606 31.7539 31.4848 31.7809ZM33.3738 32.8007C33.277 32.9041 33.1786 33.0061 33.0778 33.1069C32.9022 33.2827 32.723 33.4507 32.54 33.6113C32.4816 33.6639 32.3916 33.6595 32.339 33.6009C32.3002 33.5585 32.2912 33.4967 32.3158 33.4447L32.3712 33.3187C32.4486 33.1507 32.5228 32.9769 32.594 32.7969C32.6118 32.7555 32.6476 32.7243 32.691 32.7123C32.8734 32.6671 33.051 32.6155 33.2236 32.5599C33.2938 32.5247 33.3794 32.5531 33.4148 32.6235C33.4454 32.6847 33.4284 32.7593 33.3738 32.8007ZM35.9558 28.7233C35.8942 28.8811 35.8298 29.0359 35.7604 29.1909C35.7506 29.2123 35.7404 29.2337 35.729 29.2551C35.3056 30.0707 34.5954 30.7135 33.6458 31.1607C33.5076 31.2231 33.3452 31.1617 33.2828 31.0233C33.2564 30.9651 33.2512 30.8995 33.268 30.8379C33.5958 29.6449 33.8326 28.4285 33.9758 27.1993C34.0054 26.9599 34.123 26.7401 34.3058 26.5831C34.6962 26.2439 35.0616 25.9063 35.3966 25.5745C35.5166 25.4533 35.7118 25.4525 35.8328 25.5727C35.8688 25.6083 35.8952 25.6521 35.9104 25.7005C36.2418 26.7995 36.2594 27.8273 35.9558 28.7233ZM36.2078 22.7011C36.1368 22.8273 35.9772 22.8721 35.851 22.8011C35.814 22.7801 35.7826 22.7505 35.7594 22.7149L35.7102 22.6381C35.3134 22.0309 34.8736 21.4531 34.3942 20.9091C34.3168 20.8193 34.327 20.6839 34.4166 20.6069C34.4552 20.5735 34.5044 20.5553 34.5554 20.5551C35.7066 20.5551 36.31 20.8399 36.4938 21.1851C36.6576 21.4775 36.611 21.9855 36.2142 22.6989L36.2078 22.7011ZM36.8286 24.4001C36.8274 24.4447 36.7902 24.4797 36.7458 24.4787C36.714 24.4777 36.6858 24.4585 36.6736 24.4291C36.6598 24.3953 36.6446 24.3599 36.6294 24.3259C36.6014 24.2625 36.6096 24.1889 36.651 24.1331L36.6976 24.0713C36.7542 23.9981 36.835 24.0095 36.835 24.0901C36.8412 24.1973 36.8388 24.2905 36.835 24.4001H36.8286Z" fill="white"/>
</g>
</g>
<defs>
<clipPath id="clip0_4331_235">
<rect width="48" height="48" fill="white"/>
</clipPath>
</defs>
</svg>
