<svg width="572" height="100" viewBox="0 0 572 100" fill="none" xmlns="http://www.w3.org/2000/svg">
<g clip-path="url(#clip0_7225_2703)">
<path d="M391.284 62.5232L376.367 36.6334C375.62 35.3993 374.014 35.0025 372.78 35.7528C372.42 35.9698 372.117 36.2737 371.899 36.6334L356.983 62.5232C356.809 62.8395 356.707 63.1899 356.691 63.5495C356.592 64.9975 357.686 66.2501 359.131 66.3494C359.153 66.3494 359.172 66.3494 359.193 66.3494C360.213 66.3711 360.992 65.8595 361.624 64.7619L363.931 60.7497C364.232 60.2226 364.79 59.9001 365.398 59.9001H382.814C383.418 59.9001 383.979 60.2257 384.28 60.7497L386.587 64.7619C387.167 65.8006 387.936 66.3184 388.897 66.3494C390.329 66.4052 391.539 65.2859 391.591 63.8503V63.7728C391.582 63.3387 391.477 62.9108 391.281 62.5232H391.284ZM378.845 54.7408H369.404C368.765 54.7408 368.25 54.2199 368.253 53.5812C368.253 53.3796 368.306 53.1843 368.408 53.0106L373.152 44.8189C373.471 44.267 374.178 44.0779 374.73 44.3972C374.907 44.4995 375.05 44.6453 375.152 44.8189L379.862 53.0106C380.181 53.5657 379.989 54.2695 379.437 54.5888C379.257 54.6912 379.053 54.7439 378.848 54.7439H378.845V54.7408ZM98.859 39.6285C93.1137 12.6038 66.5634 -4.6447 39.5573 1.10379C30.1067 3.11606 21.4437 7.82275 14.61 14.6595C12.3404 16.9292 10.2909 19.4127 8.49255 22.073C7.95925 22.7862 7.48176 23.5365 7.06318 24.321C-7.07858 48.059 0.682185 78.7765 24.3985 92.9307C48.1149 107.085 78.8107 99.3179 92.9524 75.586C93.9849 73.8528 94.912 72.0575 95.7306 70.2127C96.0282 69.5926 96.2949 68.9569 96.5212 68.3089C100.04 59.2273 100.862 49.321 98.8869 39.7836L98.859 39.6316V39.6285ZM81.5206 16.7524C81.8089 17.0284 82.0911 17.3043 82.3732 17.5896C86.7265 21.9304 90.1588 27.1053 92.4687 32.8041C92.63 33.201 92.4377 33.6506 92.044 33.8118C91.9075 33.8676 91.7587 33.8832 91.6161 33.8552C90.1495 33.6072 88.6643 33.5018 87.1791 33.539C86.0443 33.5638 85.0583 32.7576 84.8537 31.6414C84.0569 26.9658 82.7701 22.3893 81.0152 17.9834L80.733 17.3043C80.6245 17.0563 80.733 16.7679 80.9811 16.6563C81.164 16.5757 81.3749 16.6129 81.5206 16.7493V16.7524ZM86.2707 46.1026C86.2676 45.808 86.5032 45.563 86.7978 45.5599C86.9714 45.5599 87.1357 45.6406 87.2381 45.7801C87.6163 46.3072 87.976 46.8374 88.3202 47.3676C88.779 48.0714 89.2069 48.7752 89.6007 49.4729C89.8519 49.907 89.7898 50.4527 89.4519 50.8216C88.9155 51.4201 88.3326 52.0309 87.7062 52.6479L87.0179 53.3393C86.8505 53.5222 86.5652 53.5315 86.3823 53.3641C86.28 53.268 86.2273 53.1316 86.2397 52.992C86.2707 52.2417 86.2893 51.4852 86.3017 50.7441C86.3141 49.1752 86.3048 47.6311 86.2645 46.1026H86.2707ZM23.3381 12.6659C31.0958 7.10651 40.4069 4.12685 49.9504 4.15476C52.4774 4.15476 55.0044 4.3594 57.4973 4.77178C57.9158 4.84619 58.1949 5.24617 58.1174 5.66474C58.0864 5.84458 57.9903 6.00581 57.8507 6.12053C55.4602 7.99948 53.234 10.7807 51.2651 14.3836C50.7845 15.261 49.7644 15.692 48.8001 15.4223C42.6734 13.6301 36.311 12.7899 29.93 12.9356C27.8464 13.0038 25.7721 13.224 23.7226 13.5929C23.4405 13.6332 23.1769 13.4379 23.1366 13.1527C23.1087 12.9666 23.1862 12.7775 23.3381 12.6659ZM16.7928 81.195C15.8316 79.3718 17.075 75.1581 23.4064 68.7523C24.0203 68.1322 24.0141 67.1338 23.3971 66.5199C23.3567 66.4796 23.3133 66.4393 23.2668 66.4052L22.5103 65.8036C21.8809 65.2921 20.9693 65.3417 20.3988 65.9153L20.1507 66.1633C17.0037 69.4127 14.7557 72.4203 13.5341 75.124C13.2861 75.6666 12.6442 75.9053 12.1047 75.6573C11.9218 75.5736 11.7668 75.4403 11.6551 75.2728C6.70972 67.7849 4.08352 59.0041 4.10833 50.031C4.10833 46.8126 4.44009 43.6066 5.10672 40.4595C5.09431 40.2114 5.28655 40.0006 5.5346 39.9882C5.78264 39.9758 5.99348 40.168 6.00588 40.4192C7.08799 43.8484 8.64758 47.1071 10.6413 50.0992C13.7666 54.7966 17.5276 59.0351 21.822 62.6938C23.3598 64.0425 24.969 65.3169 26.6713 66.5571C30.1966 69.1399 33.9142 71.4467 37.7931 73.4621C39.5511 74.3613 41.2626 75.2604 43.0175 76.0356C43.9911 76.479 45.1042 76.51 46.1026 76.1224C46.9305 75.7999 47.7614 75.462 48.5986 75.1116C49.5102 74.7302 50.0063 73.738 49.7644 72.78C49.7334 72.659 49.7117 72.5629 49.6962 72.504C48.2513 66.2005 47.4979 59.7575 47.4483 53.2897V51.3239V50.0372C47.4483 48.8621 47.5103 47.6931 47.5754 46.5366C48.025 38.2643 49.4047 30.4911 51.6217 23.9551C51.8263 23.3505 51.5069 22.6931 50.9023 22.4854C50.3101 22.287 49.721 22.0947 49.135 21.9087C48.5397 21.7227 47.9041 22.042 47.7025 22.6342C45.2872 29.7315 43.7958 38.1589 43.3958 47.0761C43.3462 48.2047 42.7323 49.2341 41.7587 49.8108C36.7699 52.744 31.9888 56.0151 27.4495 59.6056C26.5752 60.3001 25.3318 60.2753 24.4885 59.5436C20.498 56.1453 17.0006 52.2107 14.0953 47.8482C8.84912 39.7867 7.59958 32.1933 10.5854 26.4697L10.6071 26.4293C10.9885 25.7937 11.3854 25.1736 11.7947 24.5566C15.2239 20.0173 21.6049 17.3849 30.0633 17.0904C30.5966 17.0718 31.1361 17.0625 31.6818 17.0625C37.2474 17.1245 42.7757 17.9617 48.1087 19.5554L48.4808 19.667L48.7691 19.7476C50.0776 20.1414 51.3891 20.5723 52.7038 21.0436L52.7968 21.0746L53.8231 21.456L54.1455 21.5769L54.4556 21.6948C57.2771 22.7862 60.0335 24.0326 62.7186 25.4279C67.8253 28.0665 72.6281 31.2508 77.0464 34.9281C69.0128 36.7667 59.6801 40.3262 50.2915 45.1135C49.8574 45.3336 49.5722 45.7677 49.5505 46.2576C49.5133 46.8374 49.473 48.0063 49.442 48.9582C49.4264 49.3768 49.7551 49.7302 50.1768 49.7426C50.3101 49.7426 50.4403 49.7178 50.5582 49.6558C59.8506 44.7693 69.1276 41.1075 77.0805 39.1914C78.5688 38.8286 79.5393 37.3992 79.3285 35.8799C79.1827 34.8195 79.0153 33.7684 78.8355 32.7297C78.606 31.443 77.9022 30.2896 76.8635 29.4989C73.0095 26.572 68.9136 23.983 64.6193 21.7568C61.7017 20.2375 58.7003 18.8856 55.6276 17.7074C55.0447 17.4873 54.7501 16.8361 54.9703 16.2532C54.992 16.2005 55.0137 16.1478 55.0416 16.0982C58.1484 10.5327 61.8443 7.41967 65.4441 7.41967H65.5557C69.8035 7.49719 74.0389 11.9186 77.1705 19.5647C78.8727 23.8063 80.1098 28.2184 80.8664 32.7266C81.226 34.7947 81.5144 36.9341 81.7283 39.1231L81.6694 39.1603L81.7469 39.2379C82.1128 43.033 82.2647 46.8467 82.1965 50.6604C82.1531 53.1347 82.0198 55.5717 81.8089 57.9623C75.431 63.0162 68.5881 67.4563 61.3792 71.2235C58.8429 72.5722 56.3035 73.8187 53.7952 74.9752L53.6773 75.0279L53.0975 75.2883C51.017 76.234 48.9614 77.1022 46.9305 77.899L46.5894 78.0293L46.1398 78.1967L45.1228 78.5843L44.8438 78.6866L43.616 79.1362L43.4671 79.1951C39.4736 80.6523 35.3746 81.8058 31.2074 82.6398C22.0762 84.3886 17.8067 83.0398 16.8052 81.195H16.7928ZM29.3564 63.3852C33.7747 59.8288 38.4442 56.5918 43.3245 53.699C43.402 60.018 44.1151 66.3121 45.4515 72.4885C43.526 71.6638 41.6099 70.7646 39.703 69.7879C36.1001 67.9152 32.643 65.7727 29.3595 63.3821L29.3564 63.3852ZM55.8788 95.532C53.9161 95.7863 51.941 95.9103 49.9628 95.9103C41.1882 95.9351 32.5903 93.4206 25.2109 88.6674C24.9256 88.4844 24.8419 88.1 25.028 87.8147C25.1365 87.6473 25.3194 87.5418 25.5179 87.5325H25.8651C27.9115 87.3868 29.9486 87.1109 31.9609 86.7078C37.2133 85.6381 42.3664 84.1157 47.3584 82.1592C47.8483 81.9763 48.3971 82.2181 48.5955 82.7049C50.7163 87.8705 53.3239 91.771 56.2384 94.2515C56.5454 94.5182 56.5764 94.9801 56.3097 95.2871C56.1981 95.4173 56.0431 95.5042 55.8726 95.529H55.8819L55.8788 95.532ZM75.2636 83.2847C71.9863 89.7278 67.9586 93.343 64.0519 93.2717C59.8041 93.1942 55.5687 88.7728 52.4309 81.1267C52.2325 80.6399 52.4619 80.0849 52.9425 79.8772L53.0417 79.8369C53.2464 79.747 53.4789 79.7315 53.6928 79.7904C59.246 81.3965 64.9945 82.2399 70.774 82.2957C71.3631 82.2957 71.946 82.2957 72.5227 82.2647C73.2017 82.243 73.8714 82.2057 74.5288 82.153C74.9597 82.1406 75.3225 82.4786 75.3349 82.9096C75.3349 83.0398 75.3101 83.17 75.2512 83.2847H75.2636ZM76.6837 77.7409C75.2543 77.9486 73.8156 78.0758 72.3739 78.1223C68.5012 78.2308 64.6317 77.9207 60.8242 77.2014C60.542 77.1487 60.3591 76.8789 60.4118 76.5968C60.4428 76.4387 60.5451 76.3022 60.6909 76.2278C61.559 75.7782 62.4303 75.3286 63.2985 74.8791C69.1306 71.8033 74.7396 68.3275 80.0881 64.4735C80.3206 64.3061 80.6431 64.3557 80.8105 64.5882C80.8912 64.6998 80.9253 64.8394 80.9036 64.9789C80.2617 68.9259 79.3006 72.811 78.0355 76.603C77.834 77.2045 77.3131 77.6448 76.6868 77.7409H76.6837ZM83.4274 81.381C83.0802 81.75 82.7298 82.1127 82.3701 82.4755C81.7438 83.1018 81.1051 83.7033 80.4509 84.2738C80.2431 84.463 79.9207 84.4475 79.7346 84.2366C79.5982 84.0847 79.5641 83.8646 79.6509 83.6785L79.8494 83.2289C80.1253 82.6305 80.3889 82.0073 80.6462 81.3655C80.7082 81.2167 80.8385 81.105 80.9935 81.0647C81.6446 80.9035 82.2802 80.7175 82.8941 80.519C83.1453 80.3919 83.4491 80.4942 83.5763 80.7454C83.6848 80.9655 83.6228 81.2291 83.4305 81.3779H83.4274V81.381ZM92.6424 66.8268C92.4222 67.3881 92.1928 67.9431 91.9447 68.495C91.9075 68.5725 91.8734 68.6469 91.8331 68.7244C90.3231 71.6358 87.7869 73.9303 84.3979 75.5271C83.9049 75.7503 83.3251 75.5271 83.1019 75.0372C83.0089 74.8295 82.9903 74.5969 83.0492 74.3768C84.2181 70.1166 85.0645 65.7757 85.5761 61.3884C85.6816 60.5327 86.1001 59.7482 86.7544 59.1901C88.1465 57.9809 89.4519 56.7748 90.6487 55.5903C91.0766 55.1594 91.7742 55.1563 92.2052 55.5841C92.3323 55.7113 92.4284 55.8694 92.4811 56.0399C93.6625 59.9622 93.7307 63.6301 92.6486 66.8268H92.6424ZM93.5415 45.3336C93.2873 45.7832 92.7199 45.9444 92.2672 45.6902C92.1339 45.6158 92.0223 45.5103 91.9416 45.3832L91.7649 45.1073C90.3479 42.94 88.779 40.8781 87.0675 38.934C86.7916 38.6146 86.8288 38.131 87.1481 37.855C87.2846 37.7372 87.4613 37.669 87.6442 37.669C91.7525 37.669 93.9074 38.686 94.5616 39.9169C95.1445 40.9618 94.9802 42.7725 93.5632 45.3212L93.5415 45.3305V45.3336ZM95.7585 51.3983C95.7554 51.5565 95.622 51.6836 95.4639 51.6774C95.3523 51.6774 95.25 51.6061 95.2066 51.5007C95.1569 51.3797 95.1042 51.2526 95.0484 51.1317C94.9492 50.9054 94.9771 50.6418 95.1259 50.4434L95.2934 50.2232C95.4949 49.9628 95.7833 50.0031 95.7833 50.2914C95.805 50.6728 95.7957 51.0077 95.7833 51.3983H95.7585ZM241.244 40.5463H258.48C259.906 40.5463 261.06 39.3805 261.057 37.9511C261.057 37.8488 261.051 37.7496 261.038 37.6504C260.849 36.3481 259.727 35.3869 258.412 35.4024H237.009C235.589 35.4086 234.438 36.559 234.432 37.979V63.7697C234.438 65.1897 235.589 66.3432 237.009 66.3463H258.502C259.928 66.3401 261.082 65.1804 261.078 63.7511C261.078 63.6519 261.072 63.5526 261.06 63.4534C260.871 62.1512 259.748 61.19 258.434 61.2055H241.266C240.339 61.2055 239.588 60.4552 239.588 59.5281V55.1407C239.588 54.2137 240.339 53.4633 241.266 53.4633H254.204C255.631 53.4571 256.784 52.2975 256.781 50.8681C256.781 50.7689 256.775 50.6697 256.762 50.5705C256.573 49.2682 255.451 48.3071 254.136 48.3226H241.266C240.339 48.3226 239.588 47.5722 239.588 46.6452V42.2578C239.57 41.3307 240.308 40.5649 241.235 40.5494H241.266H241.244V40.5463ZM293.923 50.5705C291.557 49.0636 288.376 48.2885 284.379 48.2885C279.093 48.2885 276.426 46.9986 276.426 44.4158C276.426 41.833 279.093 40.5463 284.379 40.5463C287.26 40.5401 290.112 41.092 292.782 42.1741C294.332 42.6454 295.408 42.0873 296.007 40.5804C296.524 39.2317 295.836 37.9573 294.419 37.3155C291.25 35.9822 287.84 35.3249 284.404 35.3807C280.494 35.3807 277.357 36.1962 274.907 37.7868C272.616 39.1945 271.245 41.7183 271.31 44.4096C271.31 47.38 272.516 49.6589 274.879 51.1565C277.245 52.6541 280.423 53.4385 284.42 53.4385C289.706 53.4385 292.373 54.7284 292.373 57.3112C292.373 59.8939 289.706 61.1807 284.42 61.1807H283.13C280.274 61.1373 277.45 60.5854 274.792 59.5467C273.493 59.0599 272.045 59.7172 271.555 61.0164C271.546 61.0412 271.537 61.0691 271.527 61.0939C271.047 62.4612 271.757 63.9588 273.118 64.4487C276.293 65.7447 279.701 66.3897 283.13 66.337H284.42C288.329 66.337 291.467 65.5215 293.861 63.9309C296.183 62.5449 297.578 60.0149 297.516 57.3081C297.516 54.347 296.31 52.0681 293.951 50.5643H293.929L293.923 50.5705ZM345.52 35.3869C344.097 35.3869 342.943 36.5404 342.94 37.9635V63.7666C342.999 65.1928 344.202 66.2966 345.625 66.2377C346.965 66.1819 348.041 65.106 348.096 63.7666V37.9635C348.09 36.5497 346.955 35.4024 345.541 35.3869H345.52ZM331.893 35.3869H306.198C304.772 35.3869 303.618 36.5466 303.622 37.9728C303.622 38.0751 303.628 38.1775 303.64 38.2798C303.826 39.582 304.949 40.5463 306.266 40.5277H314.833C315.76 40.5277 316.514 41.2811 316.514 42.2113V63.7697C316.52 65.199 317.68 66.3525 319.106 66.3463C319.205 66.3463 319.304 66.3401 319.404 66.3277C320.706 66.1385 321.667 65.013 321.651 63.6953V42.2268C321.651 41.2997 322.399 40.5463 323.323 40.5432H331.964C333.393 40.537 334.55 39.3743 334.544 37.9418C334.544 37.8426 334.537 37.7434 334.525 37.6442C334.342 36.3419 333.226 35.3745 331.914 35.3807H331.893V35.3869ZM223.406 61.19H206.248C205.318 61.19 204.564 60.4365 204.561 59.5064V38.0286C204.573 36.714 203.615 35.5916 202.313 35.4024C200.896 35.2319 199.609 36.2427 199.436 37.6597C199.423 37.7589 199.417 37.8612 199.417 37.9604V63.7635C199.423 65.1866 200.574 66.3401 201.997 66.3401H223.484C224.91 66.3401 226.064 65.1804 226.06 63.7542C226.06 63.6518 226.054 63.5495 226.042 63.4472C225.862 62.1326 224.727 61.1621 223.403 61.1838V61.19H223.406ZM139.374 40.5463C142.115 40.4967 144.751 41.6067 146.633 43.6004C147.675 44.6019 149.33 44.5678 150.332 43.526C150.791 43.0485 151.051 42.416 151.06 41.7524C151.029 40.937 150.636 40.1804 149.985 39.6874C143.793 33.8273 134.026 34.0971 128.169 40.2952C122.312 46.4901 122.585 56.2663 128.777 62.1264C134.844 67.8686 144.379 67.7415 150.288 61.8349C151.256 60.7838 151.188 59.1467 150.136 58.1793C149.147 57.2677 147.622 57.2677 146.633 58.1793C144.735 60.1451 142.106 61.2365 139.374 61.19C133.703 61.2179 129.084 56.6383 129.059 50.9643V50.865C129.012 48.1303 130.101 45.501 132.066 43.6004C133.979 41.6191 136.624 40.5153 139.374 40.5463ZM169.044 40.5463H186.274C187.703 40.5401 188.86 39.3774 188.853 37.9449C188.853 37.8457 188.847 37.7465 188.835 37.6473C188.646 36.345 187.52 35.3807 186.206 35.3993H164.762C163.342 35.4055 162.188 36.5559 162.182 37.9759V63.7666C162.188 65.1897 163.342 66.3401 164.762 66.3432H186.249C187.675 66.3432 188.832 65.1804 188.829 63.7511C188.829 63.6488 188.822 63.5495 188.81 63.4503C188.621 62.1481 187.495 61.1838 186.181 61.2024H169.019C168.092 61.2024 167.342 60.452 167.342 59.525V55.1283C167.342 54.2013 168.089 53.4478 169.013 53.4447H181.952C183.378 53.4447 184.534 52.282 184.531 50.8526C184.531 50.7503 184.525 50.6511 184.513 50.5519C184.324 49.2496 183.198 48.2854 181.883 48.304H169.019C168.092 48.304 167.342 47.5536 167.342 46.6265V42.2454C167.329 41.3183 168.07 40.5587 168.994 40.5463H169.044Z" fill="#F1F9F4"/>
<path d="M417.23 27.9611H415.432V71.1367H417.23V27.9611Z" fill="#F1F9F4"/>
<path d="M440.745 66.6315V35.3745H469.375V40.0626H445.473V48.614H464.69V53.3889H445.473V61.9403H469.375V66.6284H440.745V66.6315Z" fill="#F1F9F4"/>
<path d="M472.888 66.6315V35.3745H498.44C499.482 35.3745 500.437 35.6288 501.302 36.1342C502.17 36.6396 502.855 37.3217 503.364 38.1743C503.869 39.027 504.123 39.9758 504.123 41.0176V60.9884C504.123 62.0302 503.869 62.979 503.364 63.8317C502.858 64.6843 502.17 65.3665 501.302 65.8718C500.434 66.3772 499.479 66.6315 498.44 66.6315H472.888ZM478.615 61.9434H498.31C498.629 61.9434 498.89 61.8349 499.091 61.6178C499.293 61.4008 499.395 61.1466 499.395 60.8582V41.1478C499.395 40.8594 499.293 40.6052 499.091 40.3882C498.89 40.1711 498.629 40.0626 498.31 40.0626H478.615C478.327 40.0626 478.079 40.1711 477.877 40.3882C477.675 40.6052 477.573 40.8594 477.573 41.1478V60.8582C477.573 61.1466 477.675 61.4008 477.877 61.6178C478.079 61.8349 478.327 61.9434 478.615 61.9434Z" fill="#F1F9F4"/>
<path d="M507.984 66.6315V35.3745H536.615V40.0626H512.712V48.614H531.93V53.3889H512.712V61.9403H536.615V66.6284H507.984V66.6315Z" fill="#F1F9F4"/>
<path d="M540.041 66.6315V35.3745H545.638L566.548 60.2939V35.3745H571.276V66.6315H565.68L544.726 41.6687V66.6315H540.041Z" fill="#F1F9F4"/>
</g>
<defs>
<clipPath id="clip0_7225_2703">
<rect width="571.276" height="100" fill="white"/>
</clipPath>
</defs>
</svg>
